# xmcd
#
# Track frame offsets: 
#        182
#        11945
#        24595
#        36982
#        47845
#        60157
#        71395
#        82532
#        96145
#        113432
#        126820
#        142420
#        156220
#        172132
#        202995
#        213107
#
# Disc length: 3070 seconds
#
# Revision: 2
# Processed by: cddbd v1.5.2PL0 Copyright (c) Steve Scherf et al.
# Submitted via: ExactAudioCopy v0.99pb5
#
DISCID=d30bfc10
DTITLE=John Lee Hooker - The Wonderful Music Of ...
DYEAR=1996
DGENRE=Blues
TTITLE0=Boogie Chillun
TTITLE1=Hobo Blues
TTITLE2=Crawlin' King Snake
TTITLE3=Tennessee Blues
TTITLE4=I'm In The Mood
TTITLE5=Boom Boom
TTITLE6=This Is Hip
TTITLE7=One Bourbon, One Scotch, One Beer
TTITLE8=You Know, I Know
TTITLE9=Ground Hog Blues
TTITLE10=Hey Baby
TTITLE11=I Don't Want Your Money
TTITLE12=It Serves Me Right To Suffer
TTITLE13=Let's Go Out Tonight
TTITLE14=Want Ad Blues
TTITLE15=Blues Before Sunrise
EXTD=
EXTT0=
EXTT1=
EXTT2=
EXTT3=
EXTT4=
EXTT5=
EXTT6=
EXTT7=
EXTT8=
EXTT9=
EXTT10=
EXTT11=
EXTT12=
EXTT13=
EXTT14=
EXTT15=
PLAYORDER=
